# xmcd CD database file
#
# Track frame offsets:
#	150
#	19005
#	36120
#	75315
#	91788
#	118675
#	136133
#	161765
#	206915
#	239843
#
# Disc length: 3478 seconds
#
# Revision: 0
# Processed by: cddbd v1.5.1PL0 Copyright (c) Steve Scherf et al.
# Submitted via: CDex 1.51
#
DISCID=7d0d940a
DTITLE=Stan West - My blues
DYEAR=1900
DGENRE=Blues
TTITLE0=Get outta Dodge
TTITLE1=Blue heart disease
TTITLE2=So sad, so sad (for Stevie)
TTITLE3=I just can´t take it no more
TTITLE4=Delta king
TTITLE5=Medfly blues
TTITLE6=Overnight bluesman
TTITLE7=Crazy, crazy, crazy
TTITLE8=Bullet hole
TTITLE9=Big bone (for Mr. Norris)
EXTD=
EXTT0=
EXTT1=
EXTT2=
EXTT3=
EXTT4=
EXTT5=
EXTT6=
EXTT7=
EXTT8=
EXTT9=
PLAYORDER=
